<svg height="96" width="96" version="1.1" xmlns="http://www.w3.org/2000/svg" style="overflow: hidden; position: relative;" >
  <path
  	 class="button-icon-shadow"
     d="m51 8c-9.465 0-17.679 4.816-22.5 12.188-0.497-0.036-0.994-0.188-1.5-0.188-11.598 0-21 9.402-21 21 0 9.871 6.821 18.158 16 20.406v-10.968c-1.221-1.096-2-2.66-2-4.438 0-3.324 2.676-6 6-6h44c3.324 0 6 2.676 6 6 0 1.778-0.779 3.342-2 4.438v11.562h1c8.284 0 15-6.716 15-15 0-7.312-5.262-13.297-12.188-14.625-1.334-13.664-12.797-24.375-26.812-24.375zm-25 34c-1.108 0-2 0.892-2 2v44c0 1.108 0.892 2 2 2h44c1.108 0 2-0.892 2-2v-44c0-1.108-0.892-2-2-2h-44zm6 8h32v28h-32v-28zm11 6v9h-5l10 11 10-11h-5v-9h-10z" />
  <path fill="white"
  	 class="button-icon-fill"
     d="m51 7c-9.465 0-17.679 4.816-22.5 12.188-0.497-0.036-0.994-0.188-1.5-0.188-11.598 0-21 9.402-21 21 0 9.871 6.821 18.158 16 20.406v-10.968c-1.221-1.096-2-2.66-2-4.438 0-3.324 2.676-6 6-6h44c3.324 0 6 2.676 6 6 0 1.778-0.779 3.342-2 4.438v11.562h1c8.284 0 15-6.716 15-15 0-7.312-5.262-13.297-12.188-14.625-1.334-13.664-12.797-24.375-26.812-24.375zm-25 34c-1.108 0-2 0.892-2 2v44c0 1.108 0.892 2 2 2h44c1.108 0 2-0.892 2-2v-44c0-1.108-0.892-2-2-2h-44zm6 8h32v28h-32v-28zm11 6v9h-5l10 11 10-11h-5v-9h-10z" />
</svg>
